<?xml version="1.0" encoding="utf-8"?>
<!-- Generator: Adobe Illustrator 18.1.1, SVG Export Plug-In . SVG Version: 6.00 Build 0)  -->
<svg version="1.1" id="Twitter_Blud" xmlns="http://www.w3.org/2000/svg" xmlns:xlink="http://www.w3.org/1999/xlink" x="0px"
	 y="0px" viewBox="99.4 259.7 396.7 322.6" enable-background="new 99.4 259.7 396.7 322.6" xml:space="preserve">
<g display="none">
	<path display="inline" fill="#44423E" d="M223.7,582.3c149.7,0,231.6-124.1,231.6-231.6c0-3.5,0-7-0.2-10.5
		c15.9-11.4,29.7-25.9,40.6-42.2c-14.6,6.5-30.3,10.8-46.8,12.9c16.8-10,29.7-26,35.9-45.1c-15.7,9.4-33.2,16-51.7,19.7
		c-14.9-15.9-36-25.7-59.4-25.7c-44.9,0-81.4,36.5-81.4,81.4c0,6.3,0.8,12.5,2.1,18.6c-67.6-3.3-127.6-35.9-167.8-85.1
		c-7,12.1-11,26-11,41c0,28.3,14.4,53.2,36.2,67.8c-13.3-0.5-25.9-4.1-36.8-10.2c0,0.3,0,0.6,0,1.1c0,39.4,28.1,72.4,65.2,79.8
		c-6.8,1.9-14,2.9-21.4,2.9c-5.2,0-10.3-0.5-15.2-1.4c10.3,32.4,40.5,55.9,76,56.5c-27.9,21.9-63,34.9-101.1,34.9
		c-6.5,0-13-0.3-19.4-1.1C134.9,568.8,177.8,582.3,223.7,582.3"/>
</g>
<g display="none">
	<path display="inline" fill="#44423E" d="M297.4,287.8c43,0,48.1,0.2,65.1,0.9c15.7,0.7,24.2,3.3,29.9,5.5
		c7.5,2.9,12.9,6.4,18.5,12.1c5.6,5.6,9.1,11,12.1,18.5c2.2,5.7,4.8,14.2,5.5,29.9c0.8,17,0.9,22.1,0.9,65.1s-0.2,48.1-0.9,65.1
		c-0.7,15.7-3.3,24.2-5.5,29.9c-2.9,7.5-6.4,12.9-12.1,18.5c-5.6,5.6-11,9.1-18.5,12.1c-5.7,2.2-14.2,4.8-29.9,5.5
		c-17,0.8-22.1,0.9-65.1,0.9s-48.1-0.2-65.1-0.9c-15.7-0.7-24.2-3.3-29.9-5.5c-7.5-2.9-12.9-6.4-18.5-12.1
		c-5.6-5.6-9.1-11-12.1-18.5c-2.2-5.7-4.8-14.2-5.5-29.9c-0.8-17-0.9-22.1-0.9-65.1s0.2-48.1,0.9-65.1c0.7-15.7,3.3-24.2,5.5-29.9
		c2.9-7.5,6.4-12.9,12.1-18.5c5.6-5.6,11-9.1,18.5-12.1c5.7-2.2,14.2-4.8,29.9-5.5C249.3,288,254.4,287.8,297.4,287.8 M297.4,258.8
		c-43.8,0-49.3,0.2-66.4,1c-17.2,0.8-28.9,3.5-39.1,7.5c-10.6,4.1-19.6,9.6-28.5,18.6c-9,9-14.5,17.9-18.6,28.5
		c-4,10.3-6.7,22-7.5,39.1c-0.8,17.2-1,22.7-1,66.4c0,43.8,0.2,49.3,1,66.4c0.8,17.2,3.5,28.9,7.5,39.1c4.1,10.6,9.6,19.6,18.6,28.5
		c9,9,17.9,14.5,28.5,18.6c10.3,4,22,6.7,39.1,7.5c17.2,0.8,22.7,1,66.4,1s49.3-0.2,66.4-1c17.2-0.8,28.9-3.5,39.1-7.5
		c10.6-4.1,19.6-9.6,28.5-18.6c9-9,14.5-17.9,18.6-28.5c4-10.3,6.7-22,7.5-39.1c0.8-17.2,1-22.7,1-66.4s-0.2-49.3-1-66.4
		c-0.8-17.2-3.5-28.9-7.5-39.1c-4.1-10.6-9.6-19.6-18.6-28.5c-9-9-17.9-14.5-28.5-18.6c-10.3-4-22-6.7-39.1-7.5
		C346.7,259,341.2,258.8,297.4,258.8L297.4,258.8z"/>
	<path display="inline" fill="#44423E" d="M297.4,337.2c-45.7,0-82.7,37-82.7,82.7s37,82.7,82.7,82.7s82.7-37,82.7-82.7
		S343.1,337.2,297.4,337.2z M297.4,473.6c-29.7,0-53.7-24-53.7-53.7c0-29.7,24-53.7,53.7-53.7c29.7,0,53.7,24,53.7,53.7
		C351.1,449.6,327.1,473.6,297.4,473.6z"/>
	<circle display="inline" fill="#44423E" cx="383.4" cy="333.9" r="19.3"/>
</g>
<path id="f" fill="#44423E" d="M322.3,580.9V434.4h49.2l7.4-57.1h-56.6v-36.5c0-16.5,4.6-27.8,28.3-27.8l30.2,0v-51.1
	c-5.2-0.7-23.2-2.2-44.1-2.2c-43.6,0-73.5,26.6-73.5,75.5v42.1H214v57.1h49.3v146.5H322.3z"/>
</svg>
